<mxfile host="app.diagrams.net" modified="2021-04-11T11:59:08.379Z" agent="5.0 (Windows NT 10.0; Win64; x64) AppleWebKit/537.36 (KHTML, like Gecko) Chrome/89.0.4389.114 Safari/537.36 Edg/89.0.774.75" etag="l_6nbB_kP5eHfdArf02D" version="14.5.8" type="github">
  <diagram name="Page-1" id="74e2e168-ea6b-b213-b513-2b3c1d86103e">
    <mxGraphModel dx="3328" dy="1043" grid="1" gridSize="10" guides="1" tooltips="1" connect="1" arrows="1" fold="1" page="1" pageScale="1" pageWidth="1100" pageHeight="850" background="#ffffff" math="0" shadow="0">
      <root>
        <mxCell id="0" />
        <mxCell id="1" parent="0" />
        <mxCell id="Q-t8Him3TaO82qF9hkeP-18" style="rounded=0;orthogonalLoop=1;jettySize=auto;html=1;shape=link;exitX=0.5;exitY=1;exitDx=0;exitDy=0;" edge="1" parent="1" source="Q-t8Him3TaO82qF9hkeP-23">
          <mxGeometry relative="1" as="geometry">
            <mxPoint x="370" y="2100" as="targetPoint" />
            <mxPoint x="369.5" y="680" as="sourcePoint" />
            <Array as="points">
              <mxPoint x="369.5" y="810" />
            </Array>
          </mxGeometry>
        </mxCell>
        <mxCell id="Ys9GMCc9Vko_Eex2yi7Q-30" style="rounded=0;orthogonalLoop=1;jettySize=auto;html=1;shape=link;" parent="1" edge="1">
          <mxGeometry relative="1" as="geometry">
            <mxPoint x="600" y="1170" as="targetPoint" />
            <mxPoint x="600" y="140" as="sourcePoint" />
          </mxGeometry>
        </mxCell>
        <mxCell id="Ys9GMCc9Vko_Eex2yi7Q-17" style="rounded=0;orthogonalLoop=1;jettySize=auto;html=1;shape=link;" parent="1" edge="1">
          <mxGeometry relative="1" as="geometry">
            <mxPoint x="-385" y="760" as="targetPoint" />
            <mxPoint x="-385.5" y="140" as="sourcePoint" />
          </mxGeometry>
        </mxCell>
        <mxCell id="Ys9GMCc9Vko_Eex2yi7Q-11" style="rounded=0;orthogonalLoop=1;jettySize=auto;html=1;shape=link;" parent="1" edge="1">
          <mxGeometry relative="1" as="geometry">
            <mxPoint x="-650" y="760" as="targetPoint" />
            <mxPoint x="-650.5" y="140" as="sourcePoint" />
          </mxGeometry>
        </mxCell>
        <mxCell id="Zn10XZDvXmqRQ1icz6eG-1" value="&lt;font style=&quot;font-size: 14px&quot;&gt;实例化&lt;/font&gt;" style="rounded=0;whiteSpace=wrap;html=1;fillColor=#7EA6E0;" parent="1" vertex="1">
          <mxGeometry x="-760" y="20" width="1390" height="40" as="geometry" />
        </mxCell>
        <mxCell id="Zn10XZDvXmqRQ1icz6eG-2" value="&lt;font style=&quot;font-size: 14px&quot;&gt;注入&lt;/font&gt;" style="rounded=0;whiteSpace=wrap;html=1;fillColor=#B5739D;" parent="1" vertex="1">
          <mxGeometry x="690" y="30" width="830" height="30" as="geometry" />
        </mxCell>
        <mxCell id="Zn10XZDvXmqRQ1icz6eG-6" style="rounded=0;orthogonalLoop=1;jettySize=auto;html=1;shape=link;" parent="1" source="Zn10XZDvXmqRQ1icz6eG-4" edge="1">
          <mxGeometry relative="1" as="geometry">
            <mxPoint x="-20" y="370" as="targetPoint" />
            <Array as="points">
              <mxPoint x="-20" y="370" />
            </Array>
          </mxGeometry>
        </mxCell>
        <mxCell id="Zn10XZDvXmqRQ1icz6eG-4" value="BeanFactory" style="rounded=0;whiteSpace=wrap;html=1;fillColor=#7EA6E0;" parent="1" vertex="1">
          <mxGeometry x="-100" y="100" width="160" height="40" as="geometry" />
        </mxCell>
        <mxCell id="Zn10XZDvXmqRQ1icz6eG-10" style="edgeStyle=none;rounded=0;orthogonalLoop=1;jettySize=auto;html=1;exitX=1;exitY=0.5;exitDx=0;exitDy=0;entryX=0;entryY=0.5;entryDx=0;entryDy=0;" parent="1" source="Zn10XZDvXmqRQ1icz6eG-5" target="Zn10XZDvXmqRQ1icz6eG-9" edge="1">
          <mxGeometry relative="1" as="geometry" />
        </mxCell>
        <mxCell id="Zn10XZDvXmqRQ1icz6eG-5" value="" style="rounded=0;whiteSpace=wrap;html=1;fillColor=#FFFFFF;" parent="1" vertex="1">
          <mxGeometry x="-60" y="250" width="80" height="40" as="geometry" />
        </mxCell>
        <mxCell id="Zn10XZDvXmqRQ1icz6eG-7" value="&lt;pre style=&quot;background-color: #2b2b2b ; color: #a9b7c6 ; font-family: &amp;#34;jetbrains mono&amp;#34; ; font-size: 11.3pt&quot;&gt;AbstractAutowireCapableBeanFactory&lt;/pre&gt;" style="rounded=0;whiteSpace=wrap;html=1;fillColor=#7EA6E0;" parent="1" vertex="1">
          <mxGeometry x="220" y="100" width="300" height="40" as="geometry" />
        </mxCell>
        <mxCell id="Zn10XZDvXmqRQ1icz6eG-8" value="调用&amp;nbsp;Object getBean(String var1) throws BeansException;方法" style="text;html=1;strokeColor=none;fillColor=none;align=center;verticalAlign=middle;whiteSpace=wrap;rounded=0;" parent="1" vertex="1">
          <mxGeometry x="80" y="190" width="170" height="80" as="geometry" />
        </mxCell>
        <mxCell id="Zn10XZDvXmqRQ1icz6eG-16" style="edgeStyle=none;rounded=0;orthogonalLoop=1;jettySize=auto;html=1;exitX=0.75;exitY=1;exitDx=0;exitDy=0;entryX=0.75;entryY=0;entryDx=0;entryDy=0;" parent="1" source="Zn10XZDvXmqRQ1icz6eG-9" target="Zn10XZDvXmqRQ1icz6eG-14" edge="1">
          <mxGeometry relative="1" as="geometry" />
        </mxCell>
        <mxCell id="Zn10XZDvXmqRQ1icz6eG-9" value="" style="rounded=0;whiteSpace=wrap;html=1;fillColor=#FFFFFF;" parent="1" vertex="1">
          <mxGeometry x="330" y="250" width="80" height="40" as="geometry" />
        </mxCell>
        <mxCell id="Zn10XZDvXmqRQ1icz6eG-13" style="rounded=0;orthogonalLoop=1;jettySize=auto;html=1;shape=link;" parent="1" source="Zn10XZDvXmqRQ1icz6eG-14" edge="1">
          <mxGeometry relative="1" as="geometry">
            <mxPoint x="370" y="710" as="targetPoint" />
            <mxPoint x="539.5" y="170" as="sourcePoint" />
          </mxGeometry>
        </mxCell>
        <mxCell id="Q-t8Him3TaO82qF9hkeP-2" style="edgeStyle=orthogonalEdgeStyle;rounded=0;orthogonalLoop=1;jettySize=auto;html=1;entryX=0.007;entryY=0.147;entryDx=0;entryDy=0;entryPerimeter=0;exitX=1.025;exitY=0.167;exitDx=0;exitDy=0;exitPerimeter=0;" edge="1" parent="1" source="Zn10XZDvXmqRQ1icz6eG-14" target="Ys9GMCc9Vko_Eex2yi7Q-27">
          <mxGeometry relative="1" as="geometry" />
        </mxCell>
        <mxCell id="Q-t8Him3TaO82qF9hkeP-8" style="edgeStyle=orthogonalEdgeStyle;rounded=0;orthogonalLoop=1;jettySize=auto;html=1;entryX=0;entryY=0.75;entryDx=0;entryDy=0;" edge="1" parent="1" source="Zn10XZDvXmqRQ1icz6eG-14" target="Q-t8Him3TaO82qF9hkeP-7">
          <mxGeometry relative="1" as="geometry" />
        </mxCell>
        <mxCell id="Q-t8Him3TaO82qF9hkeP-13" value="4" style="edgeLabel;html=1;align=center;verticalAlign=middle;resizable=0;points=[];" vertex="1" connectable="0" parent="Q-t8Him3TaO82qF9hkeP-8">
          <mxGeometry x="-0.05" y="5" relative="1" as="geometry">
            <mxPoint as="offset" />
          </mxGeometry>
        </mxCell>
        <mxCell id="Q-t8Him3TaO82qF9hkeP-15" style="edgeStyle=orthogonalEdgeStyle;rounded=0;orthogonalLoop=1;jettySize=auto;html=1;exitX=0;exitY=0.75;exitDx=0;exitDy=0;entryX=0.5;entryY=1;entryDx=0;entryDy=0;" edge="1" parent="1" source="Zn10XZDvXmqRQ1icz6eG-14" target="Q-t8Him3TaO82qF9hkeP-12">
          <mxGeometry relative="1" as="geometry" />
        </mxCell>
        <mxCell id="Q-t8Him3TaO82qF9hkeP-16" value="6" style="edgeLabel;html=1;align=center;verticalAlign=middle;resizable=0;points=[];" vertex="1" connectable="0" parent="Q-t8Him3TaO82qF9hkeP-15">
          <mxGeometry x="-0.2653" y="-2" relative="1" as="geometry">
            <mxPoint as="offset" />
          </mxGeometry>
        </mxCell>
        <mxCell id="Zn10XZDvXmqRQ1icz6eG-14" value="" style="rounded=0;whiteSpace=wrap;html=1;fillColor=#FFFFFF;" parent="1" vertex="1">
          <mxGeometry x="330" y="370" width="80" height="270" as="geometry" />
        </mxCell>
        <mxCell id="Zn10XZDvXmqRQ1icz6eG-15" style="rounded=0;orthogonalLoop=1;jettySize=auto;html=1;shape=link;exitX=0.5;exitY=1;exitDx=0;exitDy=0;" parent="1" source="Zn10XZDvXmqRQ1icz6eG-7" target="Zn10XZDvXmqRQ1icz6eG-14" edge="1">
          <mxGeometry relative="1" as="geometry">
            <mxPoint x="540" y="710" as="targetPoint" />
            <mxPoint x="539.5" y="170" as="sourcePoint" />
            <Array as="points">
              <mxPoint x="370" y="270" />
            </Array>
          </mxGeometry>
        </mxCell>
        <mxCell id="Zn10XZDvXmqRQ1icz6eG-18" value="1.doGetBean" style="text;html=1;strokeColor=none;fillColor=none;align=center;verticalAlign=middle;whiteSpace=wrap;rounded=0;" parent="1" vertex="1">
          <mxGeometry x="390" y="330" width="70" height="10" as="geometry" />
        </mxCell>
        <mxCell id="Ys9GMCc9Vko_Eex2yi7Q-5" style="edgeStyle=orthogonalEdgeStyle;rounded=0;orthogonalLoop=1;jettySize=auto;html=1;entryX=0;entryY=0.5;entryDx=0;entryDy=0;" parent="1" source="Ys9GMCc9Vko_Eex2yi7Q-2" target="Ys9GMCc9Vko_Eex2yi7Q-4" edge="1">
          <mxGeometry relative="1" as="geometry" />
        </mxCell>
        <mxCell id="Ys9GMCc9Vko_Eex2yi7Q-2" value="ClassPathXmlApplicationContext" style="rounded=0;whiteSpace=wrap;html=1;fillColor=#FFFFFF;rotation=90;" parent="1" vertex="1">
          <mxGeometry x="-1110" y="350" width="190" height="40" as="geometry" />
        </mxCell>
        <mxCell id="Ys9GMCc9Vko_Eex2yi7Q-9" style="edgeStyle=orthogonalEdgeStyle;rounded=0;orthogonalLoop=1;jettySize=auto;html=1;exitX=1;exitY=0.5;exitDx=0;exitDy=0;entryX=0;entryY=0.5;entryDx=0;entryDy=0;" parent="1" source="Ys9GMCc9Vko_Eex2yi7Q-4" target="Ys9GMCc9Vko_Eex2yi7Q-8" edge="1">
          <mxGeometry relative="1" as="geometry" />
        </mxCell>
        <mxCell id="Ys9GMCc9Vko_Eex2yi7Q-4" value="" style="rounded=0;whiteSpace=wrap;html=1;fillColor=#FFFFFF;" parent="1" vertex="1">
          <mxGeometry x="-880" y="350" width="80" height="40" as="geometry" />
        </mxCell>
        <mxCell id="Ys9GMCc9Vko_Eex2yi7Q-6" value="调用&amp;nbsp;构造方法" style="text;html=1;strokeColor=none;fillColor=none;align=center;verticalAlign=middle;whiteSpace=wrap;rounded=0;" parent="1" vertex="1">
          <mxGeometry x="-1030" y="320" width="170" height="80" as="geometry" />
        </mxCell>
        <mxCell id="Ys9GMCc9Vko_Eex2yi7Q-7" value="AbstractApplicationCpntext" style="rounded=0;whiteSpace=wrap;html=1;fillColor=#7EA6E0;rotation=0;" parent="1" vertex="1">
          <mxGeometry x="-745" y="100" width="190" height="40" as="geometry" />
        </mxCell>
        <mxCell id="Ys9GMCc9Vko_Eex2yi7Q-13" style="edgeStyle=orthogonalEdgeStyle;rounded=0;orthogonalLoop=1;jettySize=auto;html=1;exitX=1;exitY=0.5;exitDx=0;exitDy=0;entryX=1;entryY=0.5;entryDx=0;entryDy=0;" parent="1" source="Ys9GMCc9Vko_Eex2yi7Q-8" target="Ys9GMCc9Vko_Eex2yi7Q-12" edge="1">
          <mxGeometry relative="1" as="geometry" />
        </mxCell>
        <mxCell id="Ys9GMCc9Vko_Eex2yi7Q-8" value="" style="rounded=0;whiteSpace=wrap;html=1;fillColor=#FFFFFF;" parent="1" vertex="1">
          <mxGeometry x="-690" y="350" width="80" height="40" as="geometry" />
        </mxCell>
        <mxCell id="Ys9GMCc9Vko_Eex2yi7Q-10" value="调用 refresh方法" style="text;html=1;strokeColor=none;fillColor=none;align=center;verticalAlign=middle;whiteSpace=wrap;rounded=0;" parent="1" vertex="1">
          <mxGeometry x="-830" y="320" width="170" height="80" as="geometry" />
        </mxCell>
        <mxCell id="Ys9GMCc9Vko_Eex2yi7Q-18" style="edgeStyle=orthogonalEdgeStyle;rounded=0;orthogonalLoop=1;jettySize=auto;html=1;exitX=0.5;exitY=1;exitDx=0;exitDy=0;" parent="1" source="Ys9GMCc9Vko_Eex2yi7Q-12" target="Ys9GMCc9Vko_Eex2yi7Q-16" edge="1">
          <mxGeometry relative="1" as="geometry" />
        </mxCell>
        <mxCell id="Ys9GMCc9Vko_Eex2yi7Q-12" value="" style="rounded=0;whiteSpace=wrap;html=1;fillColor=#FFFFFF;" parent="1" vertex="1">
          <mxGeometry x="-690" y="460" width="80" height="40" as="geometry" />
        </mxCell>
        <mxCell id="Ys9GMCc9Vko_Eex2yi7Q-14" value="&lt;font style=&quot;font-size: 8px&quot;&gt;调用&amp;nbsp;finishBeanFactoryInitialization方法&lt;/font&gt;" style="text;html=1;strokeColor=none;fillColor=none;align=center;verticalAlign=middle;whiteSpace=wrap;rounded=0;" parent="1" vertex="1">
          <mxGeometry x="-700" y="380" width="170" height="100" as="geometry" />
        </mxCell>
        <mxCell id="Ys9GMCc9Vko_Eex2yi7Q-15" value="&lt;pre style=&quot;background-color: #2b2b2b ; color: #a9b7c6 ; font-family: &amp;#34;jetbrains mono&amp;#34; ; font-size: 11.3pt&quot;&gt;DefaultListableBeanFactory&lt;/pre&gt;" style="rounded=0;whiteSpace=wrap;html=1;fillColor=#7EA6E0;rotation=0;" parent="1" vertex="1">
          <mxGeometry x="-480" y="100" width="210" height="40" as="geometry" />
        </mxCell>
        <mxCell id="Ys9GMCc9Vko_Eex2yi7Q-21" style="edgeStyle=orthogonalEdgeStyle;rounded=0;orthogonalLoop=1;jettySize=auto;html=1;exitX=1;exitY=0.5;exitDx=0;exitDy=0;entryX=0;entryY=0.5;entryDx=0;entryDy=0;curved=1;" parent="1" source="Ys9GMCc9Vko_Eex2yi7Q-16" target="Zn10XZDvXmqRQ1icz6eG-9" edge="1">
          <mxGeometry relative="1" as="geometry">
            <Array as="points">
              <mxPoint x="130" y="480" />
              <mxPoint x="130" y="270" />
            </Array>
          </mxGeometry>
        </mxCell>
        <mxCell id="Ys9GMCc9Vko_Eex2yi7Q-16" value="" style="rounded=0;whiteSpace=wrap;html=1;fillColor=#FFFFFF;" parent="1" vertex="1">
          <mxGeometry x="-425" y="460" width="80" height="40" as="geometry" />
        </mxCell>
        <mxCell id="Ys9GMCc9Vko_Eex2yi7Q-19" value="调用preInstantiateSingletons方法" style="text;html=1;strokeColor=none;fillColor=none;align=center;verticalAlign=middle;whiteSpace=wrap;rounded=0;" parent="1" vertex="1">
          <mxGeometry x="-610" y="520" width="185" height="40" as="geometry" />
        </mxCell>
        <mxCell id="Ys9GMCc9Vko_Eex2yi7Q-22" value="调用 getBean方法" style="text;html=1;strokeColor=none;fillColor=none;align=center;verticalAlign=middle;whiteSpace=wrap;rounded=0;" parent="1" vertex="1">
          <mxGeometry x="-160" y="410" width="170" height="80" as="geometry" />
        </mxCell>
        <mxCell id="Ys9GMCc9Vko_Eex2yi7Q-23" value="这一步方法中，首先对beanDefinition的信息进行了合并操作，只有有parent属性的才会合并 ，然后对合并后的beanDefinition对象进行了判断，如果不是抽象类，且是单例，且没有懒加载配置，则进行实例化。如果是懒加载配置，那么只会在上下文中调用getBean时才会触发，流程开始是后面的BeanFactory" style="text;html=1;strokeColor=none;fillColor=#FFFF99;align=center;verticalAlign=middle;whiteSpace=wrap;rounded=0;" parent="1" vertex="1">
          <mxGeometry x="-380" y="510" width="220" height="170" as="geometry" />
        </mxCell>
        <mxCell id="Ys9GMCc9Vko_Eex2yi7Q-25" value="懒加载配置，手动getBean" style="text;html=1;strokeColor=none;fillColor=#FFFF99;align=center;verticalAlign=middle;whiteSpace=wrap;rounded=0;" parent="1" vertex="1">
          <mxGeometry x="-105" y="160" width="80" height="65" as="geometry" />
        </mxCell>
        <mxCell id="Ys9GMCc9Vko_Eex2yi7Q-26" value="&lt;pre style=&quot;background-color: #2b2b2b ; color: #a9b7c6 ; font-family: &amp;quot;jetbrains mono&amp;quot; ; font-size: 11.3pt&quot;&gt;DefaultSingletonBeanRegistry&lt;/pre&gt;" style="rounded=0;whiteSpace=wrap;html=1;fillColor=#7EA6E0;" parent="1" vertex="1">
          <mxGeometry x="540" y="100" width="230" height="40" as="geometry" />
        </mxCell>
        <mxCell id="Ys9GMCc9Vko_Eex2yi7Q-27" value="" style="rounded=0;whiteSpace=wrap;html=1;fillColor=#FFFFFF;" parent="1" vertex="1">
          <mxGeometry x="570" y="370" width="270" height="300" as="geometry" />
        </mxCell>
        <mxCell id="Ys9GMCc9Vko_Eex2yi7Q-29" value="2.调用&lt;span style=&quot;background-color: rgb(43 , 43 , 43) ; color: rgb(169 , 183 , 198) ; font-family: &amp;#34;jetbrains mono&amp;#34; ; font-size: 11.3pt&quot;&gt;getSingleton&lt;/span&gt;&lt;span&gt;方法&lt;/span&gt;" style="text;html=1;strokeColor=none;fillColor=none;align=center;verticalAlign=middle;whiteSpace=wrap;rounded=0;" parent="1" vertex="1">
          <mxGeometry x="410" y="330" width="170" height="80" as="geometry" />
        </mxCell>
        <mxCell id="Ys9GMCc9Vko_Eex2yi7Q-31" value="调用&lt;span style=&quot;background-color: rgb(43 , 43 , 43) ; color: rgb(169 , 183 , 198) ; font-family: &amp;#34;jetbrains mono&amp;#34; ; font-size: 11.3pt&quot;&gt;getSingleton&lt;/span&gt;方法，会先从一级缓存（单例池）获取，如果一级缓存中没有，且当前bean正在被创建，就从二级缓存去拿，二级缓存缓存的是从三级缓存的对象工厂拿到的一个对象，如二级缓存中还没有，且允许bean提前暴露，则会去三级缓存中拿，三级缓存缓存的是一个bean工厂对象，拿到后会放入二级缓存并同时从三级缓存中移除" style="text;html=1;strokeColor=none;fillColor=#FFFF99;align=center;verticalAlign=middle;whiteSpace=wrap;rounded=0;" parent="1" vertex="1">
          <mxGeometry x="610" y="190" width="220" height="170" as="geometry" />
        </mxCell>
        <mxCell id="Q-t8Him3TaO82qF9hkeP-1" style="edgeStyle=orthogonalEdgeStyle;rounded=0;orthogonalLoop=1;jettySize=auto;html=1;entryX=1;entryY=0.574;entryDx=0;entryDy=0;entryPerimeter=0;" edge="1" parent="1" source="Ys9GMCc9Vko_Eex2yi7Q-27" target="Zn10XZDvXmqRQ1icz6eG-14">
          <mxGeometry relative="1" as="geometry" />
        </mxCell>
        <mxCell id="Q-t8Him3TaO82qF9hkeP-5" value="3.返回缓存的实例" style="text;html=1;strokeColor=none;fillColor=none;align=center;verticalAlign=middle;whiteSpace=wrap;rounded=0;" vertex="1" parent="1">
          <mxGeometry x="410" y="450" width="170" height="80" as="geometry" />
        </mxCell>
        <mxCell id="Q-t8Him3TaO82qF9hkeP-6" value="有两种情况，没有该beanName缓存的实例，和有该实例。这里主要讲 没有实例的情况" style="text;html=1;strokeColor=none;fillColor=#FFFF99;align=center;verticalAlign=middle;whiteSpace=wrap;rounded=0;" vertex="1" parent="1">
          <mxGeometry x="250" y="410" width="80" height="150" as="geometry" />
        </mxCell>
        <mxCell id="Q-t8Him3TaO82qF9hkeP-11" style="edgeStyle=orthogonalEdgeStyle;rounded=0;orthogonalLoop=1;jettySize=auto;html=1;exitX=1;exitY=0.5;exitDx=0;exitDy=0;entryX=1;entryY=0.75;entryDx=0;entryDy=0;" edge="1" parent="1" source="Q-t8Him3TaO82qF9hkeP-7" target="Zn10XZDvXmqRQ1icz6eG-14">
          <mxGeometry relative="1" as="geometry" />
        </mxCell>
        <mxCell id="Q-t8Him3TaO82qF9hkeP-14" value="5" style="edgeLabel;html=1;align=center;verticalAlign=middle;resizable=0;points=[];" vertex="1" connectable="0" parent="Q-t8Him3TaO82qF9hkeP-11">
          <mxGeometry x="-0.1211" y="-2" relative="1" as="geometry">
            <mxPoint as="offset" />
          </mxGeometry>
        </mxCell>
        <mxCell id="Q-t8Him3TaO82qF9hkeP-7" value="" style="rounded=0;whiteSpace=wrap;html=1;fillColor=#FFFFFF;" vertex="1" parent="1">
          <mxGeometry x="330" y="690" width="80" height="40" as="geometry" />
        </mxCell>
        <mxCell id="Q-t8Him3TaO82qF9hkeP-10" value="获取合并后的beanDefinition对象，需要合并的对象为配置中有parent标签bean。" style="text;html=1;strokeColor=none;fillColor=#FFFF99;align=center;verticalAlign=middle;whiteSpace=wrap;rounded=0;" vertex="1" parent="1">
          <mxGeometry x="220" y="630" width="80" height="100" as="geometry" />
        </mxCell>
        <mxCell id="Q-t8Him3TaO82qF9hkeP-20" style="edgeStyle=elbowEdgeStyle;rounded=0;orthogonalLoop=1;jettySize=auto;html=1;entryX=1.013;entryY=0.6;entryDx=0;entryDy=0;entryPerimeter=0;" edge="1" parent="1" source="Q-t8Him3TaO82qF9hkeP-12" target="Q-t8Him3TaO82qF9hkeP-19">
          <mxGeometry relative="1" as="geometry">
            <Array as="points">
              <mxPoint x="650" y="990" />
              <mxPoint x="530" y="1060" />
            </Array>
          </mxGeometry>
        </mxCell>
        <mxCell id="Q-t8Him3TaO82qF9hkeP-21" value="Text" style="edgeLabel;html=1;align=center;verticalAlign=middle;resizable=0;points=[];" vertex="1" connectable="0" parent="Q-t8Him3TaO82qF9hkeP-20">
          <mxGeometry x="0.3016" y="1" relative="1" as="geometry">
            <mxPoint as="offset" />
          </mxGeometry>
        </mxCell>
        <mxCell id="Q-t8Him3TaO82qF9hkeP-12" value="" style="rounded=0;whiteSpace=wrap;html=1;fillColor=#FFFFFF;" vertex="1" parent="1">
          <mxGeometry x="570" y="690" width="270" height="300" as="geometry" />
        </mxCell>
        <mxCell id="Q-t8Him3TaO82qF9hkeP-17" value="&lt;pre style=&quot;background-color: #2b2b2b ; color: #a9b7c6 ; font-family: &amp;#34;jetbrains mono&amp;#34; ; font-size: 11.3pt&quot;&gt;6.Object &lt;span style=&quot;color: #ffc66d&quot;&gt;getSingleton&lt;/span&gt;(String beanName&lt;span style=&quot;color: #cc7832&quot;&gt;, &lt;/span&gt;ObjectFactory&amp;lt;?&amp;gt; singletonFactory) &lt;/pre&gt;" style="text;html=1;strokeColor=none;fillColor=none;align=center;verticalAlign=middle;whiteSpace=wrap;rounded=0;" vertex="1" parent="1">
          <mxGeometry x="220" y="770" width="170" height="80" as="geometry" />
        </mxCell>
        <mxCell id="Q-t8Him3TaO82qF9hkeP-28" style="edgeStyle=elbowEdgeStyle;rounded=0;orthogonalLoop=1;jettySize=auto;html=1;" edge="1" parent="1" source="Q-t8Him3TaO82qF9hkeP-19">
          <mxGeometry relative="1" as="geometry">
            <mxPoint x="320" y="1410" as="targetPoint" />
            <Array as="points">
              <mxPoint x="230" y="1270" />
            </Array>
          </mxGeometry>
        </mxCell>
        <mxCell id="Q-t8Him3TaO82qF9hkeP-19" value="" style="rounded=0;whiteSpace=wrap;html=1;fillColor=#FFFFFF;" vertex="1" parent="1">
          <mxGeometry x="330" y="1050" width="80" height="270" as="geometry" />
        </mxCell>
        <mxCell id="Q-t8Him3TaO82qF9hkeP-22" value="&lt;pre style=&quot;background-color: #2b2b2b ; color: #a9b7c6 ; font-family: &amp;#34;jetbrains mono&amp;#34; ; font-size: 11.3pt&quot;&gt;&lt;pre style=&quot;font-family: &amp;#34;jetbrains mono&amp;#34; ; font-size: 11.3pt&quot;&gt;Object &lt;span style=&quot;color: #ffc66d&quot;&gt;createBean&lt;/span&gt;(String beanName&lt;span style=&quot;color: #cc7832&quot;&gt;, &lt;/span&gt;RootBeanDefinition mbd&lt;span style=&quot;color: #cc7832&quot;&gt;, &lt;/span&gt;&lt;span style=&quot;color: #bbb529&quot;&gt;@Nullable &lt;/span&gt;Object[] args)&lt;/pre&gt;&lt;/pre&gt;" style="text;html=1;strokeColor=none;fillColor=none;align=center;verticalAlign=middle;whiteSpace=wrap;rounded=0;" vertex="1" parent="1">
          <mxGeometry x="610" y="1195" width="170" height="80" as="geometry" />
        </mxCell>
        <mxCell id="Q-t8Him3TaO82qF9hkeP-34" style="edgeStyle=elbowEdgeStyle;rounded=0;orthogonalLoop=1;jettySize=auto;html=1;exitX=1;exitY=0.75;exitDx=0;exitDy=0;" edge="1" parent="1" source="Q-t8Him3TaO82qF9hkeP-23">
          <mxGeometry relative="1" as="geometry">
            <mxPoint x="420" y="1600" as="targetPoint" />
            <Array as="points">
              <mxPoint x="480" y="1530" />
            </Array>
          </mxGeometry>
        </mxCell>
        <mxCell id="Q-t8Him3TaO82qF9hkeP-23" value="" style="rounded=0;whiteSpace=wrap;html=1;fillColor=#FFFFFF;" vertex="1" parent="1">
          <mxGeometry x="330" y="1340" width="80" height="150" as="geometry" />
        </mxCell>
        <mxCell id="Q-t8Him3TaO82qF9hkeP-24" style="rounded=0;orthogonalLoop=1;jettySize=auto;html=1;shape=link;exitX=0.5;exitY=1;exitDx=0;exitDy=0;" edge="1" parent="1" target="Q-t8Him3TaO82qF9hkeP-23">
          <mxGeometry relative="1" as="geometry">
            <mxPoint x="370" y="1824" as="targetPoint" />
            <mxPoint x="369.5" y="680" as="sourcePoint" />
            <Array as="points" />
          </mxGeometry>
        </mxCell>
        <mxCell id="Q-t8Him3TaO82qF9hkeP-30" value="&lt;pre style=&quot;background-color: #2b2b2b ; color: #a9b7c6 ; font-family: &amp;#34;jetbrains mono&amp;#34; ; font-size: 11.3pt&quot;&gt;&lt;pre style=&quot;font-family: &amp;#34;jetbrains mono&amp;#34; ; font-size: 11.3pt&quot;&gt;&lt;pre style=&quot;font-family: &amp;#34;jetbrains mono&amp;#34; ; font-size: 11.3pt&quot;&gt;调用 &lt;span style=&quot;color: #ffc66d&quot;&gt;doCreateBean 方法&lt;/span&gt;&lt;/pre&gt;&lt;/pre&gt;&lt;/pre&gt;" style="text;html=1;strokeColor=none;fillColor=none;align=center;verticalAlign=middle;whiteSpace=wrap;rounded=0;" vertex="1" parent="1">
          <mxGeometry x="140" y="1290" width="170" height="80" as="geometry" />
        </mxCell>
        <mxCell id="Q-t8Him3TaO82qF9hkeP-32" value="这一步中，先去单例池中，调用remove方法从单例池中获取，如果获取的对象为null,则进行真正的创建" style="text;html=1;strokeColor=none;fillColor=#FFFF99;align=center;verticalAlign=middle;whiteSpace=wrap;rounded=0;" vertex="1" parent="1">
          <mxGeometry x="420" y="1340" width="130" height="110" as="geometry" />
        </mxCell>
        <mxCell id="Q-t8Him3TaO82qF9hkeP-33" value="" style="rounded=0;whiteSpace=wrap;html=1;fillColor=#FFFFFF;" vertex="1" parent="1">
          <mxGeometry x="230" y="1540" width="190" height="480" as="geometry" />
        </mxCell>
        <mxCell id="Q-t8Him3TaO82qF9hkeP-35" value="调用&lt;span style=&quot;color: rgb(255 , 198 , 109) ; background-color: rgb(43 , 43 , 43) ; font-family: &amp;#34;jetbrains mono&amp;#34; ; font-size: 11.3pt&quot;&gt;createBeanInstance 方法。 返回一个&lt;/span&gt;&lt;span style=&quot;background-color: rgb(43 , 43 , 43) ; color: rgb(169 , 183 , 198) ; font-family: &amp;#34;jetbrains mono&amp;#34; ; font-size: 11.3pt&quot;&gt;BeanWrapper对象&lt;/span&gt;" style="text;html=1;strokeColor=none;fillColor=none;align=center;verticalAlign=middle;whiteSpace=wrap;rounded=0;" vertex="1" parent="1">
          <mxGeometry x="410" y="1490" width="170" height="80" as="geometry" />
        </mxCell>
        <mxCell id="Q-t8Him3TaO82qF9hkeP-36" value="BeanWrapper对象就是Spring对真正实例的封装。" style="text;html=1;strokeColor=none;fillColor=#FFFF99;align=center;verticalAlign=middle;whiteSpace=wrap;rounded=0;" vertex="1" parent="1">
          <mxGeometry x="420" y="1610" width="130" height="110" as="geometry" />
        </mxCell>
        <mxCell id="Q-t8Him3TaO82qF9hkeP-37" value="" style="ellipse;whiteSpace=wrap;html=1;" vertex="1" parent="1">
          <mxGeometry x="287.5" y="1550" width="75" height="30" as="geometry" />
        </mxCell>
        <mxCell id="Q-t8Him3TaO82qF9hkeP-38" value="是否有FatoryMethodName" style="rhombus;whiteSpace=wrap;html=1;" vertex="1" parent="1">
          <mxGeometry x="281" y="1600" width="88" height="40" as="geometry" />
        </mxCell>
        <mxCell id="Q-t8Him3TaO82qF9hkeP-39" style="edgeStyle=elbowEdgeStyle;rounded=0;orthogonalLoop=1;jettySize=auto;html=1;exitX=1;exitY=1;exitDx=0;exitDy=0;" edge="1" parent="1" source="Q-t8Him3TaO82qF9hkeP-38" target="Q-t8Him3TaO82qF9hkeP-38">
          <mxGeometry relative="1" as="geometry" />
        </mxCell>
      </root>
    </mxGraphModel>
  </diagram>
</mxfile>
